<?xml version="1.0" encoding="UTF-8"?>
<svg id="Layer_2" data-name="Layer 2" xmlns="http://www.w3.org/2000/svg" viewBox="0 0 300.5 200.5">
  <defs>
    <style>
      .cls-1 {
        fill: none;
        stroke: #000;
        stroke-miterlimit: 10;
        stroke-width: .5px;
      }
    </style>
  </defs>
  <g id="Layer_1-2" data-name="Layer 1">
    <g id="golden-spiral">
      <rect id="rect_3:2_" data-name="rect (3:2)" class="cls-1" x=".25" y=".25" width="299.9999" height="200"/>
      <path id="golden_spiral" data-name="golden spiral" class="cls-1" d="m216.5693,141.8908c-2.1948,0-3.9741,1.9193-3.9741,4.2868,0,3.8307,2.8789,6.9361,6.4302,6.9361,5.7461,0,10.4042-5.0247,10.4042-11.2229,0-9.9599-7.4851-18.034-16.7184-18.034-14.9398,0-27.051,13.0642-27.051,29.1796,0,26.0753,19.5962,47.2136,43.7694,47.2136,39.113,0,70.8204-34.2024,70.8204-76.3932,0-68.2661-51.3036-123.6068-114.5898-123.6068C83.261.2501.25,89.7931.25,200.25"/>
    </g>
  </g>
</svg>