<?xml version="1.0" encoding="UTF-8"?>
<svg id="Layer_2" data-name="Layer 2" xmlns="http://www.w3.org/2000/svg" viewBox="0 0 524.4093 200.3066">
  <defs>
    <style>
      .cls-1 {
        fill: rgba(39, 37, 37, .05);
      }

      .cls-1, .cls-2 {
        stroke: #000;
        stroke-miterlimit: 10;
        stroke-width: .25px;
      }

      .cls-2 {
        fill: none;
      }
    </style>
  </defs>
  <g id="Layer_1-2" data-name="Layer 1">
    <g id="golden-wedge-squares">
      <g id="squares">
        <rect id="square_09" data-name="square 09" class="cls-1" x=".125" y=".125" width="200" height="200" transform="translate(200.25 0) rotate(90)"/>
        <rect id="square_08" data-name="square 08" class="cls-1" x="200.125" y=".125" width="123.6068" height="123.6068" transform="translate(323.8568 -200) rotate(90)"/>
        <rect id="square_07" data-name="square 07" class="cls-1" x="323.7318" y=".125" width="76.3932" height="76.3932" transform="translate(400.25 -323.6068) rotate(90)"/>
        <rect id="square_06" data-name="square 06" class="cls-1" x="400.125" y=".125" width="47.2136" height="47.2136" transform="translate(447.4635 -399.9999) rotate(90)"/>
        <rect id="square_05" data-name="square 05" class="cls-1" x="447.3385" y=".125" width="29.0401" height="29.0401" transform="translate(476.5037 -447.2135) rotate(90)"/>
        <rect id="square_04" data-name="square 04" class="cls-1" x="476.3787" y=".125" width="18.034" height="18.034" transform="translate(494.5377 -476.2536) rotate(90)"/>
        <rect id="square_03" data-name="square 03" class="cls-1" x="494.4127" y=".125" width="11.2229" height="11.2229" transform="translate(505.7606 -494.2877) rotate(90)"/>
        <rect id="square_02" data-name="square 02" class="cls-1" x="505.6356" y=".125" width="6.9361" height="6.9361" transform="translate(512.6967 -505.5106) rotate(90)"/>
        <rect id="square_01" data-name="square 01" class="cls-1" x="512.5717" y=".125" width="4.2868" height="4.2868" transform="translate(516.9835 -512.4467) rotate(90)"/>
      </g>
      <polygon id="triangle" class="cls-2" points=".125 200.125 523.7317 .125 .125 .125 .125 200.125"/>
    </g>
  </g>
</svg>