<?xml version="1.0" encoding="UTF-8"?>
<svg id="Layer_2" data-name="Layer 2" xmlns="http://www.w3.org/2000/svg" viewBox="0 0 300 200">
  <defs>
    <style>
      .cls-1 {
        stroke-width: 0px;
      }
    </style>
  </defs>
  <g id="Layer_1-2" data-name="Layer 1">
    <g id="ratio-3to2">
      <g id="rect_3:2_" data-name="rect (3:2)">
        <path class="cls-1" d="m299.75.25v199.5H.25V.25h299.5m.25-.25H0v200h300V0h0Z"/>
      </g>
      <g id="label">
        <path class="cls-1" d="m145.3279,94.3938c0,.7012-.1367,1.3105-.4102,1.8262-.2715.5156-.6504.9355-1.1367,1.2617-.4883.3262-1.0605.5527-1.7188.6816v.0859c1.2461.1582,2.1816.5586,2.8086,1.2031s.9395,1.4902.9395,2.5352c0,.9102-.2129,1.7148-.6387,2.418-.4258.7012-1.0781,1.25-1.9551,1.6484-.877.3965-2,.5957-3.3691.5957-.8301,0-1.5977-.0664-2.3027-.1992-.7051-.1309-1.3809-.3516-2.0254-.6602v-1.6758c.6523.3223,1.3613.5742,2.127.7578.7656.1816,1.5078.2734,2.2246.2734,1.4316,0,2.4668-.2852,3.1035-.8535.6367-.5703.9551-1.3477.9551-2.3359,0-.6816-.1758-1.2305-.5312-1.6504-.3535-.418-.8633-.7266-1.5254-.9238-.6621-.1953-1.459-.2949-2.3887-.2949h-1.5703v-1.5254h1.5801c.8516,0,1.5762-.125,2.1699-.375.5938-.252,1.0469-.6035,1.3594-1.0586.3105-.4551.4668-.9941.4668-1.6172,0-.7949-.2656-1.4082-.7949-1.8418s-1.25-.6504-2.1602-.6504c-.5586,0-1.0664.0586-1.5234.1719-.459.1152-.8887.2734-1.2891.4727-.4023.2012-.8027.4336-1.2031.6992l-.9023-1.2246c.5723-.4453,1.2695-.8281,2.0938-1.1504s1.7578-.4824,2.8047-.4824c1.6035,0,2.8066.3652,3.6094,1.0957.8008.7305,1.2031,1.6602,1.2031,2.793Z"/>
        <path class="cls-1" d="m148.7204,95.7902c0-.5156.1211-.8789.3652-1.0918.2441-.2109.541-.3164.8906-.3164.3672,0,.6738.1055.9258.3164.25.2129.375.5762.375,1.0918,0,.4863-.125.8418-.375,1.0625-.252.2227-.5586.334-.9258.334-.3496,0-.6465-.1113-.8906-.334-.2441-.2207-.3652-.5762-.3652-1.0625Zm0,9.5273c0-.5.1211-.8574.3652-1.0684s.541-.3164.8906-.3164c.3672,0,.6738.1055.9258.3164.25.2109.375.5684.375,1.0684,0,.4941-.125.8535-.375,1.0801-.252.2246-.5586.3379-.9258.3379-.3496,0-.6465-.1133-.8906-.3379-.2441-.2266-.3652-.5859-.3652-1.0801Z"/>
        <path class="cls-1" d="m164.2654,106.4348h-10.2891v-1.4922l4.1992-4.2656c.7812-.7871,1.4375-1.4883,1.9707-2.1055.5332-.6152.9395-1.2227,1.2207-1.8203.2773-.5977.418-1.2559.418-1.9707,0-.8887-.2637-1.5664-.7891-2.0371-.5273-.4688-1.2188-.7031-2.0781-.7031-.7539,0-1.418.1289-2,.3867-.5781.2578-1.1738.623-1.7812,1.0957l-.957-1.2031c.416-.3496.8691-.6621,1.3594-.9336.4902-.2734,1.0156-.4883,1.5781-.6445.5625-.1582,1.1621-.2363,1.8008-.2363.9648,0,1.8008.168,2.502.5039.7012.3379,1.2441.8164,1.627,1.4395s.5742,1.3652.5742,2.2246c0,.8301-.1641,1.6016-.4922,2.3145-.3301.7129-.793,1.418-1.3867,2.1152-.5938.6992-1.2891,1.4395-2.084,2.2188l-3.416,3.4062v.0742h8.0234v1.6328Z"/>
      </g>
    </g>
  </g>
</svg>