<?xml version="1.0" encoding="UTF-8"?>
<svg id="Layer_2" data-name="Layer 2" xmlns="http://www.w3.org/2000/svg" viewBox="0 0 250 200">
  <defs>
    <style>
      .cls-1 {
        fill: #fff;
        opacity: .05;
      }

      .cls-1, .cls-2 {
        stroke-width: 0px;
      }
    </style>
  </defs>
  <g id="Layer_1-2" data-name="Layer 1">
    <g id="ratio-5to4">
      <g id="rect_5:4_" data-name="rect (5:4)">
        <rect class="cls-1" x=".1249" y=".125" width="249.75" height="199.75"/>
        <path class="cls-2" d="m249.75.25v199.5H.25V.25h249.5m.25-.25H0v200h250V0h0Z"/>
      </g>
      <g id="label">
        <path class="cls-2" d="m115.5792,96.8303c1.0684,0,1.9961.1807,2.7832.543.7871.3613,1.3984.8857,1.832,1.5732s.6504,1.5215.6504,2.5029c0,1.0742-.2344,2-.6992,2.7773-.4648.7764-1.1348,1.375-2.0078,1.793-.875.4199-1.9199.6289-3.1367.6289-.8164,0-1.5762-.0713-2.2773-.2148-.7031-.1436-1.293-.3584-1.7734-.6445v-1.6973c.5234.3154,1.1562.5654,1.9023.752.7441.1865,1.4668.2793,2.168.2793.7969,0,1.4922-.127,2.0898-.3809.5977-.2549,1.0645-.6416,1.3965-1.1602.334-.5195.5-1.1729.5-1.9609,0-1.0459-.3203-1.8535-.9609-2.4219-.6406-.5703-1.6523-.8545-3.0352-.8545-.4434,0-.9316.0361-1.4609.1074s-.9668.1504-1.3105.2363l-.9023-.5908.6016-7.3691h7.8086v1.6328h-6.2832l-.3965,4.7373c.2715-.0576.6211-.1162,1.0508-.1768.4297-.0615.918-.0918,1.4609-.0918Z"/>
        <path class="cls-2" d="m123.7218,95.7883c0-.5156.1211-.8789.3652-1.0908.2441-.2109.541-.3164.8906-.3164.3672,0,.6738.1055.9258.3164.25.2119.375.5752.375,1.0908,0,.4873-.125.8418-.375,1.0635-.252.2217-.5586.333-.9258.333-.3496,0-.6465-.1113-.8906-.333s-.3652-.5762-.3652-1.0635Zm0,9.5283c0-.501.1211-.8574.3652-1.0684.2441-.2119.541-.3174.8906-.3174.3672,0,.6738.1055.9258.3174.25.2109.375.5674.375,1.0684,0,.4941-.125.8535-.375,1.0801-.252.2246-.5586.3379-.9258.3379-.3496,0-.6465-.1133-.8906-.3379-.2441-.2266-.3652-.5859-.3652-1.0801Z"/>
        <path class="cls-2" d="m140.0519,102.7922h-2.3516v3.6416h-1.7422v-3.6416h-7.5938v-1.5039l7.4766-10.6455h1.8594v10.5381h2.3516v1.6113Zm-4.0938-1.6113v-5.1348c0-.3936.0039-.75.0117-1.0693.0078-.3184.0176-.6152.0312-.8906.0156-.2764.0273-.5391.0391-.79.0098-.251.0195-.498.0273-.7412h-.0859c-.1367.2861-.293.5889-.4688.9082-.1758.3184-.3516.6025-.5312.8535l-4.8438,6.8643h5.8203Z"/>
      </g>
    </g>
  </g>
</svg>