<?xml version="1.0" encoding="UTF-8"?>
<svg id="Layer_2" data-name="Layer 2" xmlns="http://www.w3.org/2000/svg" viewBox="0 0 323.6067 200">
  <defs>
    <style>
      .cls-1 {
        stroke-width: 0px;
      }
    </style>
  </defs>
  <g id="Layer_1-2" data-name="Layer 1">
    <g id="ratio-golden">
      <g id="rect_golden_" data-name="rect (golden)">
        <path class="cls-1" d="m323.3567.25v199.5H.25V.25h323.1067m.25-.25H0v200h323.6067V0h0Z"/>
      </g>
      <g id="label">
        <path class="cls-1" d="m153.5125,90.5031v1.9336c1.6621.0293,2.9844.3008,3.9648.8164s1.6875,1.207,2.1172,2.0742c.4297.8652.6445,1.8477.6445,2.9434,0,.7441-.1152,1.4668-.3438,2.1699-.2305.7012-.6016,1.334-1.1172,1.8965-.5156.5605-1.2051,1.0117-2.0684,1.3535-.8633.3398-1.9277.5195-3.1973.541v2.418h-1.8047v-2.418c-1.2949-.0215-2.377-.207-3.2422-.5586-.8672-.3496-1.5547-.8086-2.0625-1.375-.5098-.5645-.873-1.1953-1.0918-1.8906-.2188-.6934-.3262-1.4004-.3262-2.1152,0-.7949.1172-1.541.3535-2.2402.2363-.6973.6172-1.3145,1.1445-1.8477.5254-.5332,1.2188-.9551,2.0781-1.2676.8594-.3105,1.9082-.4785,3.1465-.5v-1.9336h1.8047Zm-1.8047,3.4805c-1.1875.0293-2.1387.2207-2.8516.5762-.7129.3535-1.2266.8457-1.541,1.4766-.3145.6289-.4727,1.375-.4727,2.2344,0,.9023.1738,1.6816.5215,2.3359.3477.6562.8809,1.1641,1.5996,1.5254.7207.3613,1.6348.5605,2.7441.5957v-8.7441Zm1.8047,0v8.7441c1.1465-.0352,2.0781-.2402,2.793-.6113.7168-.373,1.2441-.8887,1.5801-1.5469.3359-.6602.5059-1.4336.5059-2.3203,0-.8672-.1582-1.6133-.4727-2.2402-.3164-.627-.8301-1.1133-1.543-1.4609s-1.666-.5352-2.8633-.5645Z"/>
        <path class="cls-1" d="m162.9989,95.7883c0-.5156.1211-.8789.3652-1.0898s.541-.3164.8906-.3164c.3672,0,.6738.1055.9258.3164.25.2109.375.5742.375,1.0898,0,.4883-.125.8418-.375,1.0645-.252.2207-.5586.332-.9258.332-.3496,0-.6465-.1113-.8906-.332-.2441-.2227-.3652-.5762-.3652-1.0645Zm0,9.5293c0-.502.1211-.8574.3652-1.0684.2441-.2129.541-.3184.8906-.3184.3672,0,.6738.1055.9258.3184.25.2109.375.5664.375,1.0684,0,.4941-.125.8535-.375,1.0801-.252.2246-.5586.3379-.9258.3379-.3496,0-.6465-.1133-.8906-.3379-.2441-.2266-.3652-.5859-.3652-1.0801Z"/>
        <path class="cls-1" d="m174.8895,106.4348h-1.7383v-11.1289c0-.4238,0-.7871.0039-1.0898.0039-.3047.0117-.584.0215-.8379.0117-.2559.0273-.5156.0488-.7793-.2227.2285-.4297.4238-.623.5859-.1934.1602-.4336.3594-.7207.5957l-1.793,1.4395-.9336-1.2148,4.2539-3.2754h1.4805v15.7051Z"/>
      </g>
    </g>
  </g>
</svg>