<?xml version="1.0" encoding="UTF-8"?>
<svg id="Layer_2" data-name="Layer 2" xmlns="http://www.w3.org/2000/svg" viewBox="0 0 355.554 200">
  <defs>
    <style>
      .cls-1 {
        stroke-width: 0px;
      }
    </style>
  </defs>
  <g id="Layer_1-2" data-name="Layer 1">
    <g id="ratio-16to9">
      <g id="rect_16:9_" data-name="rect (16:9)">
        <path class="cls-1" d="m355.304.25v199.5H.25V.25h355.054m.25-.25H0v200h355.554V0h0Z"/>
      </g>
      <g id="label">
        <path class="cls-1" d="m163.7412,106.4352h-1.7383v-11.1289c0-.4219,0-.7852.0039-1.0898s.0117-.584.0215-.8379c.0117-.2539.0273-.5137.0488-.7793-.2227.2305-.4297.4238-.623.5859-.1934.1602-.4336.3594-.7207.5957l-1.793,1.4394-.9336-1.2129,4.2539-3.2773h1.4805v15.705Z"/>
        <path class="cls-1" d="m169.8427,99.7224c0-.9453.0664-1.8691.1992-2.7715s.3555-1.7422.6719-2.5195c.3145-.7773.7441-1.459,1.2891-2.0469.543-.5859,1.2227-1.0469,2.0351-1.3809.8125-.332,1.7891-.498,2.9258-.498.3242,0,.6699.0156,1.043.0469.373.0332.6797.0859.9238.1562v1.5371c-.2656-.0937-.5684-.1621-.9082-.2051s-.6816-.0645-1.0254-.0645c-1.332,0-2.3789.291-3.1426.8711-.7617.5801-1.3125,1.3652-1.6484,2.3574s-.5293,2.1074-.5801,3.3457h.1191c.2207-.3574.5039-.6816.8477-.9727.3437-.2891.7617-.5195,1.2519-.6914s1.0605-.2578,1.7129-.2578c.916,0,1.7168.1855,2.4004.5586.6836.3711,1.2148.9121,1.5898,1.6211.377.709.5645,1.5684.5645,2.5781,0,1.082-.2012,2.0156-.6016,2.8047-.4004.7871-.9727,1.3945-1.7129,1.8203-.7422.4258-1.625.6387-2.6484.6387-.7656,0-1.4707-.1465-2.1152-.4395-.6445-.2949-1.2051-.7305-1.6816-1.3105s-.8477-1.3027-1.1113-2.166c-.2656-.8613-.3984-1.8672-.3984-3.0117Zm5.2851,5.4238c.9746,0,1.7539-.3105,2.3418-.9336s.8809-1.5644.8809-2.8262c0-1.0312-.2617-1.8476-.7852-2.4492-.5215-.6016-1.3086-.9023-2.3633-.9023-.7148,0-1.3379.1484-1.8672.4453-.5312.2988-.9434.6719-1.2363,1.123s-.4395.9102-.4395,1.375c0,.4727.0684.9531.209,1.4394.1387.4883.3516.9394.6387,1.3535.2871.416.6484.748,1.0859,1,.4355.25.9473.375,1.5351.375Z"/>
        <path class="cls-1" d="m182.788,95.7907c0-.5156.1211-.8789.3652-1.0918.2441-.2109.541-.3164.8906-.3164.3672,0,.6738.1055.9258.3164.25.2129.375.5762.375,1.0918,0,.4863-.125.8418-.375,1.0625-.252.2227-.5586.334-.9258.334-.3496,0-.6465-.1113-.8906-.334-.2441-.2207-.3652-.5762-.3652-1.0625Zm0,9.5273c0-.5.1211-.8574.3652-1.0684s.541-.3164.8906-.3164c.3672,0,.6738.1055.9258.3164.25.2109.375.5684.375,1.0684,0,.4941-.125.8535-.375,1.0801-.252.2246-.5586.3379-.9258.3379-.3496,0-.6465-.1133-.8906-.3379-.2441-.2266-.3652-.5859-.3652-1.0801Z"/>
        <path class="cls-1" d="m198.3543,97.4235c0,.9512-.0664,1.8789-.1992,2.7812s-.3594,1.7441-.6777,2.5254c-.3184.7793-.75,1.4648-1.2949,2.0508-.543.5879-1.2246,1.0469-2.0449,1.3809-.8203.332-1.7988.5-2.9394.5-.3066,0-.6582-.0195-1.0508-.0605-.3945-.0391-.7168-.0937-.9687-.166v-1.5469c.2656.0937.5781.166.9355.2207.3574.0527.709.0801,1.0527.0801,1.3398,0,2.3926-.2871,3.1582-.8652.7656-.5762,1.3184-1.3594,1.6543-2.3516s.5273-2.1074.5703-3.3457h-.1289c-.2148.3437-.4961.6602-.8437.9492-.3477.291-.7695.5234-1.2617.6992-.4961.1758-1.0723.2637-1.7305.2637-.9102,0-1.7031-.1875-2.3789-.5586-.6777-.373-1.2031-.9141-1.5801-1.623-.375-.709-.5645-1.5644-.5645-2.5664,0-1.082.207-2.0176.6191-2.8105.4121-.791.9902-1.4004,1.7344-1.8301s1.623-.6445,2.6308-.6445c.7734,0,1.4844.1465,2.1289.4395.6445.2949,1.2031.7324,1.6797,1.3164s.8457,1.3047,1.1074,2.1641.3926,1.8594.3926,2.998Zm-5.3086-5.4043c-.9512,0-1.7226.3125-2.3144.9355-.5898.623-.8848,1.5605-.8848,2.8144,0,1.0371.2539,1.8574.7617,2.459s1.293.9023,2.3516.9023c.7305,0,1.3633-.1465,1.8965-.4395.5332-.2949.9453-.666,1.2363-1.1172.2891-.4512.4336-.9141.4336-1.3867s-.0684-.9512-.209-1.4394c-.1387-.4863-.3516-.9355-.6387-1.3477s-.6484-.7441-1.0859-1c-.4355-.2539-.9512-.3809-1.5469-.3809Z"/>
      </g>
    </g>
  </g>
</svg>