<?xml version="1.0" encoding="UTF-8"?>
<svg id="Layer_2" data-name="Layer 2" xmlns="http://www.w3.org/2000/svg" viewBox="0 0 282.8429 200">
  <defs>
    <style>
      .cls-1 {
        stroke-width: 0px;
      }
    </style>
  </defs>
  <g id="Layer_1-2" data-name="Layer 1">
    <g id="ratio-root2">
      <g id="rect_2_" data-name="rect (√2)">
        <path class="cls-1" d="m282.5929.25v199.5H.25V.25h282.3429m.25-.25H0v200h282.8429V0h0Z"/>
      </g>
      <g id="label">
        <path class="cls-1" d="m125.2557,106.5852l-2.998-8.4004h-1.9434v-1.4287h3.0605l2.5566,7.3906,5.5547-15.8555h1.4707l-6.3496,18.2939h-1.3516Z"/>
        <path class="cls-1" d="m143.3651,106.4348h-10.2891v-1.4932l4.1992-4.2646c.7812-.7881,1.4375-1.4893,1.9707-2.1055s.9395-1.2227,1.2207-1.8203c.2773-.5986.418-1.2559.418-1.9717,0-.8877-.2637-1.5664-.7891-2.0361-.5273-.4688-1.2188-.7031-2.0781-.7031-.7539,0-1.418.1289-2,.3867-.5781.2578-1.1738.623-1.7812,1.0957l-.957-1.2031c.416-.3506.8691-.6621,1.3594-.9346s1.0156-.4873,1.5781-.6445,1.1621-.2363,1.8008-.2363c.9648,0,1.8008.168,2.502.5049s1.2441.8164,1.627,1.4395.5742,1.3643.5742,2.2236c0,.8311-.1641,1.6025-.4922,2.3154-.3301.7119-.793,1.418-1.3867,2.1152-.5938.6992-1.2891,1.4385-2.084,2.2188l-3.416,3.4053v.0752h8.0234v1.6328Z"/>
        <path class="cls-1" d="m146.1796,95.7893c0-.5156.1211-.8789.3652-1.0908.2441-.2109.541-.3164.8906-.3164.3672,0,.6738.1055.9258.3164.25.2119.375.5752.375,1.0908,0,.4873-.125.8418-.375,1.0635-.252.2217-.5586.333-.9258.333-.3496,0-.6465-.1113-.8906-.333s-.3652-.5762-.3652-1.0635Zm0,9.5283c0-.501.1211-.8574.3652-1.0684.2441-.2119.541-.3174.8906-.3174.3672,0,.6738.1055.9258.3174.25.2109.375.5674.375,1.0684,0,.4941-.125.8535-.375,1.0801-.252.2246-.5586.3379-.9258.3379-.3496,0-.6465-.1133-.8906-.3379-.2441-.2266-.3652-.5859-.3652-1.0801Z"/>
        <path class="cls-1" d="m158.0721,106.4348h-1.7383v-11.1289c0-.4229,0-.7861.0039-1.0898.0039-.3047.0117-.584.0215-.8379.0117-.2549.0273-.5146.0488-.7793-.2227.2295-.4297.4238-.623.5859-.1934.1602-.4336.3594-.7207.5957l-1.793,1.4395-.9336-1.2139,4.2539-3.2764h1.4805v15.7051Z"/>
      </g>
    </g>
  </g>
</svg>