<?xml version="1.0" encoding="UTF-8"?>
<svg id="Layer_2" data-name="Layer 2" xmlns="http://www.w3.org/2000/svg" viewBox="0 0 482.8406 200">
  <defs>
    <style>
      .cls-1 {
        stroke-width: 0px;
      }
    </style>
  </defs>
  <g id="Layer_1-2" data-name="Layer 1">
    <g id="ratio-silver">
      <g id="rect_silver_" data-name="rect (silver)">
        <path class="cls-1" d="m482.5906.25v199.5H.25V.25h482.3406m.25-.25H0v200h482.8406V0h0Z"/>
      </g>
      <g id="label">
        <path class="cls-1" d="m257.8382,107.24h-1.7402v-11.1289c0-.4229.002-.7861.0049-1.0898.0039-.3047.0117-.584.0215-.8379.0117-.2549.0273-.5146.0488-.7793-.2217.2295-.4297.4238-.623.5859-.1934.1602-.4336.3594-.7197.5957l-1.7939,1.4395-.9346-1.2139,4.2539-3.2764h1.4824v15.7051Z"/>
        <path class="cls-1" d="m230.7923,90.5037c.9736,0,1.8154.1201,2.5244.3594.709.2402,1.3574.5068,1.9443.8008l-.7734,1.4072c-.5586-.3154-1.1426-.5762-1.751-.7842s-1.2822-.3115-2.0195-.3115c-.6943,0-1.209.1572-1.541.4727-.334.3154-.5.6943-.5,1.1387,0,.3721.0967.7041.29.9932.1934.291.5088.5859.9453.8867s1.0137.6484,1.7295,1.042c.874.4795,1.6201.9844,2.2402,1.5146.6191.5303,1.0938,1.123,1.4229,1.7773.3291.6562.4941,1.417.4941,2.2832,0,1.1533-.2236,2.1289-.6709,2.9277-.4482.7979-1.0781,1.4053-1.8906,1.8203-.8135.415-1.7715.623-2.874.623-1.0459,0-1.9717-.1914-2.7764-.5742-.8066-.3838-1.4385-.9424-1.8965-1.6758-.458-.7344-.6875-1.6211-.6875-2.6592,0-.9307.1973-1.749.5908-2.4541.3936-.7061.9404-1.3018,1.6377-1.7891.6992-.4873,1.499-.8633,2.4014-1.1279-.5654-.3223-1.0547-.6572-1.4658-1.0049-.4121-.3467-.7305-.7314-.957-1.1543-.2246-.4229-.3379-.9062-.3379-1.4502,0-1.0029.3721-1.7637,1.1172-2.2822.7451-.5195,1.6797-.7793,2.8037-.7793Zm.2686,7.4658c-.6445.1572-1.291.4062-1.9395.7471-.6475.3398-1.1865.8174-1.6162,1.4336s-.6445,1.418-.6445,2.4062c0,.6729.1396,1.2676.4189,1.7832s.6807.917,1.2031,1.2031,1.1494.4297,1.8799.4297c.7666,0,1.416-.1504,1.9502-.4512.5332-.3008.9395-.7393,1.2188-1.3164.2793-.5762.4189-1.2764.4189-2.0996,0-1.0166-.2559-1.8438-.7686-2.4814-.5117-.6377-1.2188-1.1885-2.1211-1.6543Z"/>
        <path class="cls-1" d="m243.6332,114.5662h-5.999v-.8701l2.4482-2.4863c.4551-.46.8379-.8691,1.1494-1.2275.3105-.3594.5479-.7129.7109-1.0615s.2441-.7324.2441-1.1494c0-.5176-.1533-.9131-.46-1.1865-.3076-.2734-.7109-.4102-1.2119-.4102-.4385,0-.8271.0752-1.165.2246-.3379.1504-.6846.3633-1.04.6396l-.5566-.7021c.2412-.2041.5059-.3857.792-.5449.2861-.1582.5928-.2832.9209-.375.3271-.0918.6768-.1377,1.0488-.1377.5635,0,1.0498.0977,1.459.2939s.7256.4756.9482.8389c.2236.3633.3359.7959.3359,1.2969,0,.4844-.0967.9336-.2881,1.3496-.1924.415-.4619.8262-.8086,1.2334s-.751.8379-1.2148,1.293l-1.9912,1.9854v.0439h4.6777v.9521Z"/>
        <path class="cls-1" d="m245.9466,96.5945c0-.5156.1221-.8789.3652-1.0908.2432-.2109.541-.3164.8916-.3164.3652,0,.6729.1055.9238.3164.251.2119.376.5752.376,1.0908,0,.4873-.125.8418-.376,1.0635s-.5586.333-.9238.333c-.3506,0-.6484-.1113-.8916-.333s-.3652-.5762-.3652-1.0635Zm0,9.5283c0-.501.1221-.8574.3652-1.0684.2432-.2119.541-.3174.8916-.3174.3652,0,.6729.1055.9238.3174.251.2109.376.5674.376,1.0684,0,.4941-.125.8535-.376,1.0801-.251.2246-.5586.3379-.9238.3379-.3506,0-.6484-.1133-.8916-.3379-.2432-.2266-.3652-.5859-.3652-1.0801Z"/>
      </g>
    </g>
  </g>
</svg>