<?xml version="1.0" encoding="UTF-8"?>
<svg id="Layer_2" data-name="Layer 2" xmlns="http://www.w3.org/2000/svg" viewBox="0 0 266.6666 200">
  <defs>
    <style>
      .cls-1 {
        stroke-width: 0px;
      }
    </style>
  </defs>
  <g id="Layer_1-2" data-name="Layer 1">
    <g id="ratio-4to3">
      <g id="rect_4:3_" data-name="rect (4:3)">
        <path class="cls-1" d="m266.4166.25v199.5H.25V.25h266.1666m.25-.25H0v200h266.6666V0h0Z"/>
      </g>
      <g id="label">
        <path class="cls-1" d="m130.0255,102.7932h-2.3516v3.6416h-1.7422v-3.6416h-7.5937v-1.5039l7.4766-10.6455h1.8594v10.5381h2.3516v1.6113Zm-4.0938-1.6113v-5.1348c0-.3936.0039-.75.0117-1.0693.0078-.3184.0176-.6152.0312-.8906.0156-.2764.0273-.5391.0391-.79.0098-.251.0195-.498.0273-.7412h-.0859c-.1367.2861-.293.5889-.4688.9082-.1758.3184-.3516.6025-.5312.8535l-4.8438,6.8643h5.8203Z"/>
        <path class="cls-1" d="m132.0548,95.7893c0-.5156.1211-.8789.3652-1.0908.2441-.2109.541-.3164.8906-.3164.3672,0,.6738.1055.9258.3164.25.2119.375.5752.375,1.0908,0,.4873-.125.8418-.375,1.0635-.252.2217-.5586.333-.9258.333-.3496,0-.6465-.1113-.8906-.333s-.3652-.5762-.3652-1.0635Zm0,9.5283c0-.501.1211-.8574.3652-1.0684.2441-.2119.541-.3174.8906-.3174.3672,0,.6738.1055.9258.3174.25.2109.375.5674.375,1.0684,0,.4941-.125.8535-.375,1.0801-.252.2246-.5586.3379-.9258.3379-.3496,0-.6465-.1133-.8906-.3379-.2441-.2266-.3652-.5859-.3652-1.0801Z"/>
        <path class="cls-1" d="m147.0216,94.3928c0,.7021-.1367,1.3105-.4102,1.8262-.2715.5156-.6504.9365-1.1367,1.2627-.4883.3252-1.0605.5527-1.7188.6816v.0859c1.2461.1572,2.1816.5586,2.8086,1.2031s.9395,1.4893.9395,2.5352c0,.9092-.2129,1.7148-.6387,2.417s-1.0781,1.251-1.9551,1.6494c-.877.3965-2,.5957-3.3691.5957-.8301,0-1.5977-.0664-2.3027-.1992-.7051-.1318-1.3809-.3525-2.0254-.6602v-1.6758c.6523.3223,1.3613.5742,2.127.7578.7656.1816,1.5078.2734,2.2246.2734,1.4316,0,2.4668-.2852,3.1035-.8535.6367-.5703.9551-1.3486.9551-2.3369,0-.6807-.1758-1.2295-.5312-1.6494-.3535-.418-.8633-.7266-1.5254-.9238-.6621-.1963-1.459-.2949-2.3887-.2949h-1.5703v-1.5254h1.5801c.8516,0,1.5762-.125,2.1699-.376s1.0469-.6035,1.3594-1.0576c.3105-.4551.4668-.9941.4668-1.6172,0-.7949-.2656-1.4092-.7949-1.8418-.5293-.4336-1.25-.6504-2.1602-.6504-.5586,0-1.0664.0576-1.5234.1719-.459.1143-.8887.2725-1.2891.4727-.4023.2002-.8027.4336-1.2031.6982l-.9023-1.2246c.5723-.4443,1.2695-.8271,2.0938-1.1494s1.7578-.4834,2.8047-.4834c1.6035,0,2.8066.3652,3.6094,1.0957.8008.7305,1.2031,1.6611,1.2031,2.793Z"/>
      </g>
    </g>
  </g>
</svg>