<?xml version="1.0" encoding="UTF-8"?>
<svg id="Layer_2" data-name="Layer 2" xmlns="http://www.w3.org/2000/svg" viewBox="0 0 346.4086 200">
  <defs>
    <style>
      .cls-1 {
        stroke-width: 0px;
      }
    </style>
  </defs>
  <g id="Layer_1-2" data-name="Layer 1">
    <g id="ratio-root3">
      <g id="rect_3_" data-name="rect (√3)">
        <path class="cls-1" d="m346.1586.25v199.5H.25V.25h345.9086m.25-.25H0v200h346.4086V0h0Z"/>
      </g>
      <g id="label">
        <path class="cls-1" d="m157.0384,106.584l-2.998-8.3984h-1.9434v-1.4297h3.0605l2.5566,7.3906,5.5547-15.8554h1.4707l-6.3496,18.2929h-1.3516Z"/>
        <path class="cls-1" d="m174.5696,94.3926c0,.7031-.1367,1.3105-.4102,1.8262-.2715.5156-.6504.9355-1.1367,1.2637-.4883.3242-1.0605.5508-1.7187.6797v.0859c1.2461.1582,2.1816.5586,2.8086,1.2031s.9394,1.4902.9394,2.5351c0,.9102-.2129,1.7148-.6387,2.418s-1.0781,1.25-1.9551,1.6484-2,.5977-3.3691.5977c-.8301,0-1.5976-.0664-2.3027-.1992s-1.3809-.3535-2.0254-.6602v-1.6758c.6523.3203,1.3613.5742,2.1269.7578.7656.1797,1.5078.2734,2.2246.2734,1.4316,0,2.4668-.2852,3.1035-.8555s.9551-1.3477.9551-2.3359c0-.6797-.1758-1.2305-.5312-1.6484-.3535-.418-.8633-.7266-1.5254-.9258-.6621-.1953-1.459-.293-2.3887-.293h-1.5703v-1.5273h1.5801c.8516,0,1.5762-.125,2.1699-.375s1.0469-.6035,1.3594-1.0586c.3105-.4531.4668-.9922.4668-1.6172,0-.793-.2656-1.4082-.7949-1.8398-.5293-.4336-1.25-.6523-2.1601-.6523-.5586,0-1.0664.0586-1.5234.1719-.459.1152-.8887.2734-1.2891.4727-.4023.2012-.8027.4336-1.2031.6992l-.9023-1.2246c.5723-.4434,1.2695-.8262,2.0937-1.1504.8242-.3203,1.7578-.4824,2.8047-.4824,1.6035,0,2.8066.3652,3.6094,1.0957.8008.7305,1.2031,1.6601,1.2031,2.793Z"/>
        <path class="cls-1" d="m177.9621,95.7891c0-.5156.1211-.8789.3652-1.0918.2441-.2109.541-.3164.8906-.3164.3672,0,.6738.1055.9258.3164.25.2129.375.5762.375,1.0918,0,.4863-.125.8418-.375,1.0644-.252.2207-.5586.332-.9258.332-.3496,0-.6465-.1113-.8906-.332-.2441-.2227-.3652-.5781-.3652-1.0644Zm0,9.5293c0-.502.1211-.8594.3652-1.0703s.541-.3164.8906-.3164c.3672,0,.6738.1055.9258.3164.25.2109.375.5684.375,1.0703,0,.4922-.125.8516-.375,1.0781-.252.2266-.5586.3398-.9258.3398-.3496,0-.6465-.1133-.8906-.3398s-.3652-.5859-.3652-1.0781Z"/>
        <path class="cls-1" d="m189.8546,106.4355h-1.7383v-11.1289c0-.4238,0-.7871.0039-1.0898.0039-.3047.0117-.5859.0215-.8398.0117-.2539.0273-.5137.0488-.7773-.2227.2285-.4297.4219-.623.5859-.1934.1602-.4336.3594-.7207.5937l-1.793,1.4414-.9336-1.2148,4.2539-3.2773h1.4805v15.707Z"/>
      </g>
    </g>
  </g>
</svg>