<?xml version="1.0" encoding="UTF-8"?>
<svg id="Layer_2" data-name="Layer 2" xmlns="http://www.w3.org/2000/svg" viewBox="0 0 200 200">
  <defs>
    <style>
      .cls-1 {
        stroke-width: 0px;
      }
    </style>
  </defs>
  <g id="Layer_1-2" data-name="Layer 1">
    <g id="ratio-1to1">
      <g id="ratio_1:1_" data-name="ratio (1:1)">
        <path class="cls-1" d="m199.75.25v199.5H.25V.25h199.5m.25-.25H0v200h200V0h0Z"/>
      </g>
      <g id="label">
        <path class="cls-1" d="m92.254,106.4338h-1.7383v-11.1289c0-.4229,0-.7861.0039-1.0898.0039-.3047.0117-.584.0215-.8379.0117-.2549.0273-.5146.0488-.7793-.2227.2295-.4297.4238-.623.5859-.1934.1602-.4336.3594-.7207.5957l-1.793,1.4395-.9336-1.2139,4.2539-3.2764h1.4805v15.7051Z"/>
        <path class="cls-1" d="m98.7208,95.7883c0-.5156.1211-.8789.3652-1.0908.2441-.2109.541-.3164.8906-.3164.3672,0,.6738.1055.9258.3164.25.2119.375.5752.375,1.0908,0,.4873-.125.8418-.375,1.0635-.252.2217-.5586.333-.9258.333-.3496,0-.6465-.1113-.8906-.333s-.3652-.5762-.3652-1.0635Zm0,9.5283c0-.501.1211-.8574.3652-1.0684.2441-.2119.541-.3174.8906-.3174.3672,0,.6738.1055.9258.3174.25.2109.375.5674.375,1.0684,0,.4941-.125.8535-.375,1.0801-.252.2246-.5586.3379-.9258.3379-.3496,0-.6465-.1133-.8906-.3379-.2441-.2266-.3652-.5859-.3652-1.0801Z"/>
        <path class="cls-1" d="m110.6134,106.4338h-1.7383v-11.1289c0-.4229,0-.7861.0039-1.0898.0039-.3047.0117-.584.0215-.8379.0117-.2549.0273-.5146.0488-.7793-.2227.2295-.4297.4238-.623.5859-.1934.1602-.4336.3594-.7207.5957l-1.793,1.4395-.9336-1.2139,4.2539-3.2764h1.4805v15.7051Z"/>
      </g>
    </g>
  </g>
</svg>