<?xml version="1.0" encoding="UTF-8"?>
<svg id="Layer_2" data-name="Layer 2" xmlns="http://www.w3.org/2000/svg" viewBox="0 0 599.9974 200">
  <defs>
    <style>
      .cls-1 {
        stroke-width: 0px;
      }
    </style>
  </defs>
  <g id="Layer_1-2" data-name="Layer 1">
    <g id="ratio-3to1">
      <g id="rect_3:1_" data-name="rect (3:1)">
        <path class="cls-1" d="m599.7474.25v199.5H.25V.25h599.4974m.25-.25H0v200h599.9974V0h0Z"/>
      </g>
      <g id="label">
        <path class="cls-1" d="m295.3266,94.3923c0,.7012-.1367,1.3105-.4102,1.8262-.2715.5156-.6504.9355-1.1367,1.2617-.4883.3262-1.0605.5527-1.7187.6816v.0859c1.2461.1582,2.1816.5586,2.8086,1.2031s.9394,1.4902.9394,2.5351c0,.9102-.2129,1.7148-.6387,2.418-.4258.7012-1.0781,1.25-1.9551,1.6484-.8769.3965-2,.5957-3.3691.5957-.8301,0-1.5976-.0664-2.3027-.1992-.7051-.1309-1.3809-.3516-2.0254-.6602v-1.6758c.6523.3223,1.3613.5742,2.1269.7578.7656.1816,1.5078.2734,2.2246.2734,1.4316,0,2.4668-.2852,3.1035-.8535.6367-.5703.9551-1.3477.9551-2.3359,0-.6816-.1758-1.2305-.5312-1.6504-.3535-.418-.8633-.7266-1.5254-.9238-.6621-.1953-1.459-.2949-2.3887-.2949h-1.5703v-1.5254h1.5801c.8516,0,1.5762-.125,2.1699-.375.5937-.252,1.0469-.6035,1.3594-1.0586.3105-.4551.4668-.9941.4668-1.6172,0-.7949-.2656-1.4082-.7949-1.8418s-1.25-.6504-2.1601-.6504c-.5586,0-1.0664.0586-1.5234.1719-.459.1152-.8887.2734-1.2891.4727-.4023.2012-.8027.4336-1.2031.6992l-.9023-1.2246c.5723-.4453,1.2695-.8281,2.0937-1.1504s1.7578-.4824,2.8047-.4824c1.6035,0,2.8066.3652,3.6094,1.0957.8008.7305,1.2031,1.6601,1.2031,2.793Z"/>
        <path class="cls-1" d="m298.7191,95.7888c0-.5156.1211-.8789.3652-1.0918.2441-.2109.541-.3164.8906-.3164.3672,0,.6738.1055.9258.3164.25.2129.375.5762.375,1.0918,0,.4863-.125.8418-.375,1.0625-.252.2227-.5586.334-.9258.334-.3496,0-.6465-.1113-.8906-.334-.2441-.2207-.3652-.5762-.3652-1.0625Zm0,9.5273c0-.5.1211-.8574.3652-1.0684s.541-.3164.8906-.3164c.3672,0,.6738.1055.9258.3164.25.2109.375.5684.375,1.0684,0,.4941-.125.8535-.375,1.0801-.252.2246-.5586.3379-.9258.3379-.3496,0-.6465-.1133-.8906-.3379-.2441-.2266-.3652-.5859-.3652-1.0801Z"/>
        <path class="cls-1" d="m310.6116,106.4333h-1.7383v-11.1289c0-.4219,0-.7852.0039-1.0898s.0117-.584.0215-.8379c.0117-.2539.0273-.5137.0488-.7793-.2227.2305-.4297.4238-.623.5859-.1934.1602-.4336.3594-.7207.5957l-1.793,1.4394-.9336-1.2129,4.2539-3.2773h1.4805v15.705Z"/>
      </g>
    </g>
  </g>
</svg>