<?xml version="1.0" encoding="UTF-8"?>
<svg id="Layer_2" data-name="Layer 2" xmlns="http://www.w3.org/2000/svg" viewBox="0 0 447.2116 200">
  <defs>
    <style>
      .cls-1 {
        stroke-width: 0px;
      }
    </style>
  </defs>
  <g id="Layer_1-2" data-name="Layer 1">
    <g id="ratio-root5">
      <g id="rect_5_" data-name="rect (√5)">
        <path class="cls-1" d="m446.9616.25v199.5H.25V.25h446.7116m.25-.25H0v200h447.2116V0h0Z"/>
      </g>
      <g id="label">
        <path class="cls-1" d="m207.4402,106.5837l-2.998-8.4004h-1.9434v-1.4277h3.0605l2.5566,7.3906,5.5547-15.8554h1.4707l-6.3496,18.2929h-1.3516Z"/>
        <path class="cls-1" d="m220.2214,96.8298c1.0684,0,1.9961.1816,2.7832.543s1.3984.8867,1.832,1.5742.6504,1.5215.6504,2.5019c0,1.0742-.2344,2-.6992,2.7773s-1.1348,1.375-2.0078,1.793c-.875.4199-1.9199.6289-3.1367.6289-.8164,0-1.5762-.0703-2.2773-.2148-.7031-.1426-1.293-.3574-1.7734-.6445v-1.6973c.5234.3164,1.1562.5664,1.9023.7519.7441.1875,1.4668.2793,2.168.2793.7969,0,1.4922-.127,2.0898-.3809s1.0644-.6406,1.3965-1.1602c.334-.5195.5-1.1719.5-1.9609,0-1.0449-.3203-1.8535-.9609-2.4219-.6406-.5703-1.6523-.8535-3.0351-.8535-.4434,0-.9316.0352-1.4609.1074-.5293.0703-.9668.1504-1.3105.2363l-.9023-.5918.6016-7.3691h7.8086v1.6328h-6.2832l-.3965,4.7383c.2715-.0586.6211-.1172,1.0508-.1777s.918-.0918,1.4609-.0918Z"/>
        <path class="cls-1" d="m228.3639,95.7888c0-.5156.1211-.8789.3652-1.0918.2441-.2109.541-.3164.8906-.3164.3672,0,.6738.1055.9258.3164.25.2129.375.5762.375,1.0918,0,.4863-.125.8418-.375,1.0625-.252.2227-.5586.334-.9258.334-.3496,0-.6465-.1113-.8906-.334-.2441-.2207-.3652-.5762-.3652-1.0625Zm0,9.5273c0-.5.1211-.8574.3652-1.0684s.541-.3164.8906-.3164c.3672,0,.6738.1055.9258.3164.25.2109.375.5684.375,1.0684,0,.4941-.125.8535-.375,1.0801-.252.2246-.5586.3379-.9258.3379-.3496,0-.6465-.1133-.8906-.3379-.2441-.2266-.3652-.5859-.3652-1.0801Z"/>
        <path class="cls-1" d="m240.2565,106.4333h-1.7383v-11.1289c0-.4219,0-.7852.0039-1.0898s.0117-.584.0215-.8379c.0117-.2539.0273-.5137.0488-.7793-.2227.2305-.4297.4238-.623.5859-.1934.1602-.4336.3594-.7207.5957l-1.793,1.4394-.9336-1.2129,4.2539-3.2773h1.4805v15.705Z"/>
      </g>
    </g>
  </g>
</svg>