<?xml version="1.0" encoding="UTF-8"?>
<svg id="Layer_2" data-name="Layer 2" xmlns="http://www.w3.org/2000/svg" viewBox="0 0 399.9982 200">
  <defs>
    <style>
      .cls-1 {
        stroke-width: 0px;
      }
    </style>
  </defs>
  <g id="Layer_1-2" data-name="Layer 1">
    <g id="ratio-2to1">
      <g id="rect_2:1_" data-name="rect (2:1)">
        <path class="cls-1" d="m399.7482.25v199.5H.25V.25h399.4982m.25-.25H0v200h399.9982V0h0Z"/>
      </g>
      <g id="label">
        <path class="cls-1" d="m195.9069,106.4352h-10.289v-1.4941l4.1992-4.2637c.7812-.7891,1.4375-1.4902,1.9707-2.1055.5332-.6172.9394-1.2227,1.2207-1.8203.2773-.5996.418-1.2578.418-1.9726,0-.8867-.2637-1.5664-.7891-2.0351-.5273-.4687-1.2187-.7031-2.0781-.7031-.7539,0-1.418.1289-2,.3867-.5781.2578-1.1738.6211-1.7812,1.0937l-.957-1.2031c.416-.3496.8691-.6602,1.3594-.9336s1.0156-.4883,1.5781-.6445,1.1621-.2363,1.8008-.2363c.9648,0,1.8008.168,2.5019.5059.7012.3359,1.2441.8164,1.6269,1.4375.3828.625.5742,1.3652.5742,2.2246,0,.8301-.1641,1.6035-.4922,2.3144-.3301.7129-.793,1.418-1.3867,2.1172s-1.2891,1.4375-2.084,2.2187l-3.416,3.4043v.0762h8.0234v1.6328Z"/>
        <path class="cls-1" d="m198.7213,95.7888c0-.5156.1211-.8789.3652-1.0918.2441-.2109.541-.3164.8906-.3164.3672,0,.6738.1055.9258.3164.25.2129.375.5762.375,1.0918,0,.4863-.125.8418-.375,1.0644-.252.2207-.5586.332-.9258.332-.3496,0-.6465-.1113-.8906-.332-.2441-.2227-.3652-.5781-.3652-1.0644Zm0,9.5293c0-.502.1211-.8594.3652-1.0703s.541-.3164.8906-.3164c.3672,0,.6738.1055.9258.3164.25.2109.375.5684.375,1.0703,0,.4922-.125.8516-.375,1.0781-.252.2266-.5586.3398-.9258.3398-.3496,0-.6465-.1133-.8906-.3398s-.3652-.5859-.3652-1.0781Z"/>
        <path class="cls-1" d="m210.6138,106.4352h-1.7383v-11.1289c0-.4238,0-.7871.0039-1.0898.0039-.3047.0117-.5859.0215-.8398.0117-.2539.0273-.5137.0488-.7773-.2227.2285-.4297.4219-.623.5859-.1934.1602-.4336.3594-.7207.5937l-1.793,1.4414-.9336-1.2148,4.2539-3.2773h1.4805v15.707Z"/>
      </g>
    </g>
  </g>
</svg>