<?xml version="1.0" encoding="UTF-8"?>
<svg id="Layer_2" data-name="Layer 2" xmlns="http://www.w3.org/2000/svg" viewBox="0 0 660.551 200">
  <defs>
    <style>
      .cls-1 {
        stroke-width: 0px;
      }
    </style>
  </defs>
  <g id="Layer_1-2" data-name="Layer 1">
    <g id="ratio-bronze">
      <g id="rect_bronze_" data-name="rect (bronze)">
        <path class="cls-1" d="m660.301.25v199.5H.25V.25h660.051m.25-.25H0v200h660.551V0h0Z"/>
      </g>
      <g id="label">
        <path class="cls-1" d="m319.6486,89.699c.9727,0,1.8145.1201,2.5234.3594.709.2402,1.3574.5068,1.9453.8008l-.7734,1.4072c-.5586-.3154-1.1426-.5762-1.752-.7842-.6074-.208-1.2812-.3115-2.0195-.3115-.6934,0-1.209.1572-1.541.4727-.334.3154-.5.6943-.5,1.1387,0,.3721.0977.7041.291.9932.1934.291.5078.5859.9453.8867.4355.3008,1.0137.6484,1.7285,1.042.875.4795,1.6211.9844,2.2402,1.5146s1.0938,1.123,1.4238,1.7773c.3281.6562.4941,1.417.4941,2.2832,0,1.1533-.2246,2.1289-.6719,2.9277-.4473.7979-1.0781,1.4053-1.8906,1.8203s-1.7715.623-2.873.623c-1.0469,0-1.9727-.1914-2.7773-.5742-.8066-.3838-1.4375-.9424-1.8965-1.6758-.457-.7344-.6875-1.6211-.6875-2.6592,0-.9307.1973-1.749.5918-2.4541.3926-.7061.9395-1.3018,1.6367-1.7891.6992-.4873,1.5-.8633,2.4023-1.1279-.5664-.3223-1.0547-.6572-1.4668-1.0049-.4121-.3467-.7305-.7314-.957-1.1543-.2246-.4229-.3379-.9062-.3379-1.4502,0-1.0029.373-1.7637,1.1172-2.2822.7461-.5195,1.6797-.7793,2.8047-.7793Zm.2676,7.4658c-.6445.1572-1.291.4062-1.9395.7471-.6465.3398-1.1855.8174-1.6152,1.4336s-.6445,1.418-.6445,2.4062c0,.6729.1387,1.2676.418,1.7832s.6816.917,1.2031,1.2031c.5234.2861,1.1504.4297,1.8809.4297.7656,0,1.416-.1504,1.9492-.4512s.9395-.7393,1.2188-1.3164c.2793-.5762.4199-1.2764.4199-2.0996,0-1.0166-.2559-1.8438-.7695-2.4814-.5117-.6377-1.2188-1.1885-2.1211-1.6543Z"/>
        <path class="cls-1" d="m332.1505,106.741c0,.4092-.0781.7637-.2383,1.0645-.1582.3008-.3789.5459-.6621.7363-.2852.1895-.6191.3223-1.002.3975v.0498c.7246.0918,1.2715.3262,1.6367.7021.3652.375.5488.8682.5488,1.4775,0,.5303-.125,1-.373,1.4092s-.6289.7295-1.1406.9609c-.5117.2324-1.166.3477-1.9629.3477-.4844,0-.9316-.0381-1.3438-.1152-.4102-.0771-.8047-.2061-1.1797-.3857v-.9766c.3789.1875.793.335,1.2402.4414.4453.1064.8789.1592,1.2949.1592.8359,0,1.4395-.166,1.8105-.4971.3711-.332.5566-.7861.5566-1.3623,0-.3965-.1016-.7178-.3086-.9619s-.5039-.4229-.8906-.5381c-.3848-.1152-.8496-.1719-1.3926-.1719h-.9141v-.8896h.9199c.498,0,.918-.0732,1.2656-.2197.3457-.1455.6094-.3516.791-.6162.1816-.2656.2734-.5791.2734-.9424,0-.4639-.1543-.8223-.4629-1.0742-.3105-.2529-.7285-.3789-1.2598-.3789-.3262,0-.6211.0332-.8887.0996-.2676.0674-.5176.1592-.752.2764-.2344.1162-.4668.252-.7012.4062l-.5254-.7139c.334-.2588.7402-.4824,1.2207-.6699s1.0254-.2812,1.6348-.2812c.9355,0,1.6367.2129,2.1035.6387.4688.4258.7012.9688.7012,1.6279Z"/>
        <path class="cls-1" d="m334.8029,95.7898c0-.5156.1211-.8789.3652-1.0908.2422-.2109.541-.3164.8906-.3164.3652,0,.6738.1055.9238.3164.252.2119.377.5752.377,1.0908,0,.4873-.125.8418-.377,1.0635-.25.2217-.5586.333-.9238.333-.3496,0-.6484-.1113-.8906-.333-.2441-.2217-.3652-.5762-.3652-1.0635Zm0,9.5283c0-.501.1211-.8574.3652-1.0684.2422-.2119.541-.3174.8906-.3174.3652,0,.6738.1055.9238.3174.252.2109.377.5674.377,1.0684,0,.4941-.125.8535-.377,1.0801-.25.2246-.5586.3379-.9238.3379-.3496,0-.6484-.1133-.8906-.3379-.2441-.2266-.3652-.5859-.3652-1.0801Z"/>
        <path class="cls-1" d="m346.6935,106.4353h-1.7402v-11.1289c0-.4229.002-.7861.0059-1.0898.0039-.3047.0117-.584.0215-.8379.0117-.2549.0273-.5146.0488-.7793-.2227.2295-.4297.4238-.623.5859-.1934.1602-.4336.3594-.7207.5957l-1.793,1.4395-.9355-1.2139,4.2539-3.2764h1.4824v15.7051Z"/>
      </g>
    </g>
  </g>
</svg>