<?xml version="1.0" encoding="UTF-8"?>
<svg id="Layer_2" data-name="Layer 2" xmlns="http://www.w3.org/2000/svg" viewBox="0 0 293.1143 200">
  <defs>
    <style>
      .cls-1 {
        stroke-width: 0px;
      }
    </style>
  </defs>
  <g id="Layer_1-2" data-name="Layer 1">
    <g id="ratio-supergolden">
      <g id="rect_supergolden_" data-name="rect (supergolden)">
        <path class="cls-1" d="m292.8643.25v199.5H.25V.25h292.6143m.25-.25H0v200h293.1143V0h0Z"/>
      </g>
      <g id="label">
        <path class="cls-1" d="m138.2876,89.7414v15.3721c.8789-.0713,1.6387-.292,2.2773-.6611.6367-.3682,1.1289-.9023,1.4766-1.5996.3477-.6992.5195-1.5742.5195-2.627,0-1.0098-.0605-1.9404-.1816-2.793s-.2969-1.7764-.5254-2.7715h1.7715c.2285.9668.4004,1.8818.5156,2.7441.1152.8633.1719,1.7822.1719,2.7559,0,1.4824-.2637,2.6875-.7891,3.6152-.5273.9268-1.2422,1.6162-2.1484,2.0674s-1.9355.709-3.0879.7734v5.1025h-1.7422v-5.1025c-1.1309-.043-2.125-.2744-2.9844-.6924-.8594-.4199-1.5293-1.0713-2.0098-1.9551-.4805-.8848-.7207-2.04-.7207-3.4648v-5.8438h1.7617v5.8867c0,1.1025.1777,1.9805.5332,2.6318.3535.6514.8301,1.1279,1.4277,1.4287s1.2617.4766,1.9922.5264v-15.3936h1.7422Z"/>
        <path class="cls-1" d="m147.2896,95.7893c0-.5156.1211-.8789.3652-1.0908.2441-.2109.541-.3164.8906-.3164.3672,0,.6738.1055.9258.3164.25.2119.375.5752.375,1.0908,0,.4873-.125.8418-.375,1.0635-.252.2217-.5586.333-.9258.333-.3496,0-.6465-.1113-.8906-.333s-.3652-.5762-.3652-1.0635Zm0,9.5283c0-.501.1211-.8574.3652-1.0684.2441-.2119.541-.3174.8906-.3174.3672,0,.6738.1055.9258.3174.25.2109.375.5674.375,1.0684,0,.4941-.125.8535-.375,1.0801-.252.2246-.5586.3379-.9258.3379-.3496,0-.6465-.1133-.8906-.3379-.2441-.2266-.3652-.5859-.3652-1.0801Z"/>
        <path class="cls-1" d="m159.1782,106.4348h-1.7383v-11.1289c0-.4229,0-.7861.0039-1.0898.0039-.3047.0117-.584.0215-.8379.0117-.2549.0273-.5146.0488-.7793-.2227.2295-.4297.4238-.623.5859-.1934.1602-.4336.3594-.7207.5957l-1.793,1.4395-.9336-1.2139,4.2539-3.2764h1.4805v15.7051Z"/>
      </g>
    </g>
  </g>
</svg>