<?xml version="1.0" encoding="UTF-8"?>
<svg id="Layer_2" data-name="Layer 2" xmlns="http://www.w3.org/2000/svg" viewBox="0 0 320 200">
  <defs>
    <style>
      .cls-1 {
        stroke-width: 0px;
      }
    </style>
  </defs>
  <g id="Layer_1-2" data-name="Layer 1">
    <g id="ratio-16to10">
      <g id="rect_16:10_" data-name="rect (16:10)">
        <path class="cls-1" d="m319.75.25v199.5H.25V.25h319.5m.25-.25H0v200h320V0h0Z"/>
      </g>
      <g id="label">
        <path class="cls-1" d="m139.6736,106.4348h-1.7383v-11.1289c0-.4238,0-.7871.0039-1.0898.0039-.3047.0117-.584.0215-.8379.0117-.2559.0273-.5156.0488-.7793-.2227.2285-.4297.4238-.623.5859-.1934.1602-.4336.3594-.7207.5957l-1.793,1.4395-.9336-1.2148,4.2539-3.2754h1.4805v15.7051Z"/>
        <path class="cls-1" d="m145.7752,99.7199c0-.9453.0664-1.8691.1992-2.7715s.3555-1.7422.6719-2.5176c.3145-.7773.7441-1.4609,1.2891-2.0469.543-.5879,1.2227-1.0469,2.0352-1.3809.8125-.332,1.7891-.5,2.9258-.5.3242,0,.6699.0176,1.043.0488.373.0332.6797.084.9238.1562v1.5352c-.2656-.0918-.5684-.1602-.9082-.2031s-.6816-.0645-1.0254-.0645c-1.332,0-2.3789.2891-3.1426.8691-.7617.5801-1.3125,1.3672-1.6484,2.3594-.3359.9902-.5293,2.1055-.5801,3.3457h.1191c.2207-.3594.5039-.6816.8477-.9727.3438-.2891.7617-.5215,1.252-.6934s1.0605-.2578,1.7129-.2578c.916,0,1.7168.1875,2.4004.5586.6836.373,1.2148.9141,1.5898,1.623.377.709.5645,1.5684.5645,2.5781,0,1.0801-.2012,2.0156-.6016,2.8027-.4004.7891-.9727,1.3945-1.7129,1.8223-.7422.4258-1.625.6387-2.6484.6387-.7656,0-1.4707-.1465-2.1152-.4414-.6445-.293-1.2051-.7305-1.6816-1.3105s-.8477-1.3008-1.1113-2.1641c-.2656-.8633-.3984-1.8672-.3984-3.0137Zm5.2852,5.4258c.9746,0,1.7539-.3125,2.3418-.9355s.8809-1.5645.8809-2.8242c0-1.0312-.2617-1.8477-.7852-2.4492-.5215-.6016-1.3086-.9023-2.3633-.9023-.7148,0-1.3379.1484-1.8672.4453-.5312.2969-.9434.6719-1.2363,1.123s-.4395.9082-.4395,1.375c0,.4727.0684.9512.209,1.4395.1387.4863.3516.9375.6387,1.3535.2871.4141.6484.748,1.0859.998.4355.252.9473.377,1.5352.377Z"/>
        <path class="cls-1" d="m158.7205,95.7883c0-.5156.1211-.8789.3652-1.0898s.541-.3164.8906-.3164c.3672,0,.6738.1055.9258.3164.25.2109.375.5742.375,1.0898,0,.4883-.125.8418-.375,1.0645-.252.2207-.5586.332-.9258.332-.3496,0-.6465-.1113-.8906-.332-.2441-.2227-.3652-.5762-.3652-1.0645Zm0,9.5293c0-.502.1211-.8574.3652-1.0684.2441-.2129.541-.3184.8906-.3184.3672,0,.6738.1055.9258.3184.25.2109.375.5664.375,1.0684,0,.4941-.125.8535-.375,1.0801-.252.2246-.5586.3379-.9258.3379-.3496,0-.6465-.1133-.8906-.3379-.2441-.2266-.3652-.5859-.3652-1.0801Z"/>
        <path class="cls-1" d="m170.6111,106.4348h-1.7383v-11.1289c0-.4238,0-.7871.0039-1.0898.0039-.3047.0117-.584.0215-.8379.0117-.2559.0273-.5156.0488-.7793-.2227.2285-.4297.4238-.623.5859-.1934.1602-.4336.3594-.7207.5957l-1.793,1.4395-.9336-1.2148,4.2539-3.2754h1.4805v15.7051Z"/>
        <path class="cls-1" d="m186.9275,98.5598c0,1.2754-.0957,2.4141-.2891,3.416-.1934,1.0039-.498,1.8516-.9141,2.5469-.4141.6934-.9512,1.2227-1.6094,1.584-.6602.3613-1.4512.543-2.375.543-1.168,0-2.1328-.3184-2.8945-.957-.7637-.6367-1.332-1.5586-1.709-2.7656-.375-1.207-.5645-2.6621-.5645-4.3672,0-1.6758.1719-3.1172.5117-4.3223.3398-1.207.8887-2.1348,1.6484-2.7832s1.7617-.9727,3.0078-.9727c1.1816,0,2.1562.3203,2.9219.9629.7656.6406,1.3359,1.5645,1.707,2.7715.373,1.2051.5586,2.6543.5586,4.3438Zm-8.5605,0c0,1.4609.1113,2.6797.334,3.6523.2207.9746.5801,1.7031,1.0781,2.1875.498.4824,1.1523.7246,1.9609.7246s1.4629-.2402,1.9609-.7207c.498-.4785.8594-1.207,1.084-2.1797.2266-.9746.3379-2.1953.3379-3.6641,0-1.4395-.1094-2.6445-.332-3.6133-.2227-.9707-.5801-1.7012-1.0742-2.1914-.4941-.4922-1.1523-.7363-1.9766-.7363s-1.4824.2441-1.9766.7363c-.4941.4902-.8496,1.2207-1.0684,2.1914-.2188.9688-.3281,2.1738-.3281,3.6133Z"/>
      </g>
    </g>
  </g>
</svg>